<svg width="706" height="210" viewBox="0 0 706 210" fill="none" xmlns="http://www.w3.org/2000/svg">
<path d="M670.864 180.25C667.675 177.015 667.752 171.914 670.347 168.185C678.722 156.15 683.956 140.555 685.72 120.529C690.216 69.4943 640.232 22.5247 554.878 29.1874C535.893 30.6693 514.739 33.5965 491.554 36.8046C447.066 42.9606 395.101 50.1511 336.637 50.1507C299.951 50.1505 267.353 43.7805 234.968 37.4521C188.847 28.4394 143.157 19.511 86.707 29.1874C5.5519 43.0984 -15.5137 114.041 10.5524 163.455C42.459 223.94 126.477 212.624 220.63 199.944C262.444 194.312 306.257 188.412 348.392 188.412C407.951 188.412 441.438 193.331 472.354 197.872C498.86 201.765 523.476 205.381 561.011 205.381C579.785 205.381 596.765 204.255 611.733 201.422C618.703 200.103 625.879 200.139 632.833 201.533C657.431 206.465 685.435 206.613 698.44 206.352C700.48 206.311 701.089 203.582 699.331 202.547C687.666 195.68 678.217 187.708 670.864 180.25Z" fill="white"/>
<path d="M463.787 43.5787C478.656 68.0669 477.705 95.3791 458.19 118.768C458.19 118.768 446.669 118.802 450.956 117.202C465.727 88.4834 468.778 85.8726 458.19 42.0318C458.437 41.0201 460.849 43.2141 463.787 43.5787Z" fill="#D8C199"/>
<path d="M451.5 150C469.449 150 484 137.912 484 123C484 108.088 469.449 96 451.5 96C433.551 96 419 108.088 419 123C419 137.912 433.551 150 451.5 150Z" fill="#81674F"/>
<path d="M458.414 45.8526C457.542 37.3768 464.158 28.6907 468.289 21.8116C479.75 6.5195 501.653 -0.0987786 518.751 8.02427C544.901 21.7145 530.866 49.9875 505.985 50.9866C496.089 51.8765 486.632 48.4153 477.235 45.8895C470.812 44.3611 465.823 44.6579 458.414 45.8526Z" fill="#CEDF43"/>
<path d="M460 45.234C453.606 27.4635 432.203 17.7091 414.233 23.3811C402.714 26.0582 392.065 36.1412 391 47.9033C394.052 57.7232 408.292 62.2676 419.5 62.2676C438.545 62.2676 451.5 47.9033 460 45.234Z" fill="#CEDF43"/>
<path d="M646.525 141.083C644.835 143.72 641.081 143.951 638.848 141.756C633.066 136.071 626.78 132.301 620.441 132.301C617.039 132.301 614.042 133.759 614.042 136.432C614.042 139.672 617.039 140.887 620.522 140.887C628.541 140.887 630.971 130.438 630.971 116.83C630.971 108.244 627.083 102.412 620.765 102.412C614.803 102.412 607.826 107.294 601.868 113.043C599.352 115.47 594.811 113.771 594.835 110.276V110.276C594.841 109.287 595.24 108.341 595.957 107.66C602.597 101.36 612.902 93.1781 622.628 93.1781C634.13 93.1781 640.934 102.817 640.934 117.559C640.934 136.594 636.722 149.959 621.251 149.959C612.179 149.959 605.213 145.99 605.213 136.837C605.213 129.628 611.45 124.201 621.251 124.201C630.306 124.201 638.242 128.019 645.949 135.478C647.472 136.952 647.668 139.299 646.525 141.083V141.083ZM590.934 106.331C591.196 105.743 590.722 105.095 590.084 105.172C587.366 105.5 583.449 106.022 579.735 106.525C577.058 106.887 574.612 104.962 574.339 102.274V102.274C574.046 99.392 576.367 96.8722 579.262 96.7875C579.754 96.7731 580.274 96.7576 580.832 96.7421C585.036 96.4752 592.811 95.384 597.459 94.3284C598.965 93.9864 600.579 94.4849 601.521 95.709V95.709C602.508 96.9918 602.53 98.7772 601.631 100.123C600.602 101.665 599.443 103.47 598.536 104.87C598.13 105.498 597.811 106.177 597.591 106.891L593.585 119.875C593.347 120.649 592.992 121.381 592.535 122.049C589.891 125.922 585.817 132.009 582.232 137.206C580.258 140.067 576.076 140.055 574.065 137.22V137.22C572.75 135.365 572.827 132.865 574.231 131.076C579.233 124.698 586.305 115.241 590.032 109.614C590.486 108.928 590.747 108.139 590.81 107.318L590.865 106.605C590.872 106.511 590.896 106.418 590.934 106.331V106.331ZM590.552 89.3711C590.552 88.9325 590.555 88.4878 590.557 88.0376C590.57 84.9784 593.06 82.2402 596.118 82.3246V82.3246C599.164 82.4086 601.431 85.237 600.981 88.2516C599.6 97.5055 597.923 113.205 597.923 124.687C597.923 131.248 597.923 138.133 598.409 145.666C598.421 145.878 598.438 146.122 598.458 146.39C598.688 149.354 596.413 151.903 593.44 151.903V151.903C590.458 151.903 588.089 149.33 588.12 146.348C588.121 146.187 588.122 146.039 588.122 145.909C588.203 138.052 588.284 132.625 588.527 122.5C588.77 115.291 590.552 92.6111 590.552 89.3711Z" fill="#0C0B0B"/>
<path d="M519.75 82.657C522.932 82.9066 525.177 85.9695 524.511 89.0916C524.368 89.7606 524.239 90.3595 524.132 90.8291C522.998 96.3371 520.973 106.219 518.786 114.481C516.294 124.171 511.969 137.646 507.984 147.376C506.901 150.021 503.935 151.29 501.227 150.374V150.374C497.872 149.24 496.364 145.29 497.846 142.074C501.933 133.203 506.304 120.711 508.742 111.727C510.767 104.113 512.63 95.2031 513.197 90.4241C513.283 89.7857 513.355 89.1326 513.412 88.4812C513.696 85.2258 516.492 82.4015 519.75 82.657V82.657ZM505.178 95.2841C513.182 95.2841 522.195 94.2745 530.927 92.5565C534.044 91.9434 537.011 94.2841 537.011 97.4602V97.4602C537.011 99.7439 535.44 101.736 533.2 102.18C523.896 104.026 513.126 105.085 505.097 105.085C503.107 105.085 501.362 105.044 499.759 104.983C497.231 104.887 495.234 102.823 495.153 100.295V100.295C495.058 97.3133 497.632 94.9757 500.609 95.1547C502.144 95.2469 503.586 95.2841 505.178 95.2841ZM530.612 111.865C530.612 109.483 532.407 107.479 534.782 107.303C538.44 107.032 542.487 106.867 546.245 106.867C549.435 106.867 552.741 106.983 556.029 107.215C558.517 107.391 560.388 109.51 560.347 112.003V112.003C560.299 114.847 557.807 117.009 554.976 116.736C552.192 116.468 549.244 116.263 546.326 116.263C542.659 116.263 539.236 116.368 535.874 116.623C533.075 116.835 530.612 114.671 530.612 111.865V111.865ZM529.554 127.506C532.418 127.771 534.285 130.508 534.007 133.371C533.959 133.859 533.933 134.317 533.933 134.731C533.933 138.295 536.282 140.968 545.03 140.968C548.518 140.968 552.073 140.734 555.695 140.287C558.838 139.899 561.679 142.354 561.554 145.518V145.518C561.46 147.903 559.677 149.892 557.303 150.141C553.685 150.52 549.587 150.769 544.949 150.769C531.26 150.769 523.97 146.152 523.97 137.971C523.97 135.709 524.227 133.419 524.572 131.27C524.953 128.895 527.159 127.285 529.554 127.506V127.506Z" fill="#0C0B0B"/>
<path d="M451.888 109.223C453.548 109.271 454.802 110.751 454.531 112.389C453.98 115.73 453.233 119.343 452.125 122.98C449.625 131.172 446.042 136.202 441.5 136.202C436.833 136.202 433 131.213 433 124.359C433 115.03 441.375 107 452.167 107C462.458 107 469 113.976 469 122.858C469 130.93 464.172 136.78 454.73 138.716C453.758 138.915 452.775 138.471 452.227 137.643L452.15 137.526C451.141 136.002 452.089 133.952 453.875 133.565V133.565C459.167 132.308 463.333 128.617 463.333 122.655C463.333 116.288 459.25 111.745 452.042 111.745C443.208 111.745 438.375 118.762 438.375 123.872C438.375 127.968 440.042 129.956 441.625 129.956C443.417 129.956 445 127.36 446.75 121.885C447.718 118.83 448.499 115.23 448.985 111.729C449.187 110.28 450.426 109.182 451.888 109.223V109.223Z" fill="#D8C199"/>
<path fill-rule="evenodd" clip-rule="evenodd" d="M452.603 123.125L452.603 123.126C451.345 127.25 449.802 130.621 447.973 132.97C446.141 135.323 443.979 136.702 441.5 136.702C438.975 136.702 436.711 135.35 435.097 133.146C433.483 130.944 432.5 127.875 432.5 124.359C432.5 114.717 441.138 106.5 452.167 106.5C457.429 106.5 461.767 108.285 464.792 111.241C467.817 114.195 469.5 118.291 469.5 122.858C469.5 126.998 468.26 130.601 465.781 133.418C463.306 136.232 459.631 138.221 454.83 139.205C453.644 139.449 452.462 138.904 451.81 137.919L451.733 137.802C450.511 135.955 451.674 133.533 453.764 133.078C458.899 131.856 462.833 128.318 462.833 122.655C462.833 119.579 461.849 116.987 460.036 115.165C458.777 113.9 457.096 112.983 455.013 112.541C454.461 115.876 453.712 119.487 452.603 123.125ZM454.522 112.447C454.525 112.428 454.528 112.408 454.531 112.389C454.556 112.24 454.568 112.093 454.568 111.948C454.737 111.976 454.903 112.008 455.067 112.042C460.381 113.147 463.333 117.241 463.333 122.655C463.333 128.617 459.167 132.308 453.875 133.565C452.089 133.952 451.141 136.002 452.15 137.526L452.227 137.643C452.775 138.471 453.758 138.915 454.73 138.716C464.172 136.78 469 130.93 469 122.858C469 113.976 462.458 107 452.167 107C441.375 107 433 115.03 433 124.359C433 131.213 436.833 136.202 441.5 136.202C446.042 136.202 449.625 131.172 452.125 122.98C453.227 119.364 453.972 115.772 454.522 112.447ZM448.94 112.052C448.763 112.088 448.589 112.128 448.417 112.17C441.895 113.761 438.375 119.511 438.375 123.872C438.375 127.968 440.042 129.956 441.625 129.956C443.417 129.956 445 127.36 446.75 121.885C447.64 119.078 448.371 115.809 448.862 112.58C448.888 112.404 448.914 112.228 448.94 112.052ZM448.336 112.706C442.171 114.311 438.875 119.778 438.875 123.872C438.875 125.858 439.28 127.282 439.833 128.19C440.388 129.1 441.059 129.456 441.625 129.456C442.25 129.456 442.964 129.005 443.78 127.707C444.584 126.429 445.402 124.46 446.274 121.733C447.136 119.012 447.85 115.847 448.336 112.706Z" fill="#D8C199"/>
<path d="M362.537 82.5021C365.702 82.6176 367.964 85.6847 367.303 88.7826C366.849 90.9081 366.41 93.1817 366.059 95.261C365.883 96.3085 367.305 96.8547 367.976 96.0312C372.085 90.989 378.166 86.4552 385.528 86.4552C396.787 86.4552 405.535 97.5522 405.535 115.372C405.535 137.1 392.946 147.984 373.354 152.44C371.368 152.892 369.331 152.01 368.214 150.306V150.306C366.197 147.226 368.052 143.101 371.629 142.232C385.466 138.867 394.6 132.038 394.6 115.372C394.6 102.898 390.388 95.9322 383.665 95.9322C374.107 95.9322 365.683 110.35 365.359 120.961C365.286 121.978 365.263 123.061 365.295 124.281C365.372 127.166 363.294 129.722 360.416 129.933V129.933C357.764 130.127 355.401 128.25 355.158 125.603C354.918 123.001 354.748 119.96 354.748 116.749C354.748 109.135 355.801 99.1722 357.016 90.7482C357.143 89.5734 357.258 88.3613 357.355 87.1899C357.578 84.5057 359.845 82.4038 362.537 82.5021V82.5021Z" fill="#0C0B0B"/>
<path d="M270.466 129.881C268.014 127.327 268.359 123.23 270.846 120.71C271.433 120.114 272.037 119.475 272.673 118.775C276.48 114.968 282.717 106.544 287.739 100.712C293.409 94.3128 298.674 93.7458 304.587 99.4968C310.095 104.924 316.575 113.267 321.273 118.37C325.407 122.891 330.673 128.442 336.539 134.038C339.044 136.427 339.263 140.381 336.962 142.967V142.967C334.586 145.636 330.473 145.796 328.037 143.181C323.514 138.323 318.809 132.687 314.955 128.171C309.933 122.258 303.858 114.563 300.051 110.351C297.297 107.111 295.677 107.597 293.328 110.594C290.088 114.563 284.256 122.582 280.692 127.199C280.306 127.76 279.917 128.352 279.528 128.956C277.475 132.151 273.096 132.621 270.466 129.881V129.881ZM318.111 93.1709C319.753 92.4727 321.661 93.0518 322.607 94.5645C323.931 96.6836 325.406 99.1339 326.662 101.383C327.752 103.334 326.86 105.743 324.809 106.631V106.631C322.844 107.483 320.567 106.604 319.621 104.681C318.591 102.588 317.563 100.669 316.417 98.7798C315.198 96.7716 315.949 94.0903 318.111 93.1709V93.1709ZM329.034 88.8456C330.646 88.1147 332.551 88.6168 333.544 90.0819C334.93 92.1274 336.471 94.5361 337.766 96.7474C338.869 98.6329 338.06 100.998 336.092 101.948V101.948C334.16 102.881 331.844 102.091 330.82 100.205C329.715 98.1701 328.633 96.3302 327.466 94.5328C326.174 92.5438 326.874 89.8251 329.034 88.8456V88.8456Z" fill="#0C0B0B"/>
<path d="M231.251 104.858C229.404 106.192 226.859 105.937 225.185 104.392C224.754 103.996 224.312 103.598 223.863 103.205C221.66 101.276 221.645 97.7039 224.01 95.9767V95.9767C225.448 94.9267 227.385 94.8809 228.779 95.9884C229.721 96.7366 230.739 97.592 231.71 98.4499C233.719 100.224 233.423 103.289 231.251 104.858V104.858ZM207.604 102.044C209.824 101.192 212.326 102.137 213.392 104.263C213.595 104.666 213.777 105.031 213.926 105.328C216.275 109.783 220.487 118.612 222.836 124.282C225.286 129.956 228.762 139.94 231.223 147.414C232.138 150.193 230.476 153.143 227.635 153.842V153.842C224.902 154.514 222.145 152.83 221.375 150.122C219.285 142.769 216.273 134.288 213.845 128.251C211.334 122.095 207.77 114.319 205.259 110.107C205.225 110.049 205.19 109.989 205.155 109.928C203.516 107.122 204.57 103.209 207.604 102.044V102.044ZM197.596 125.306C196.273 122.499 197.828 119.193 200.779 118.233C201.425 118.023 201.939 117.846 202.262 117.721C214.25 113.023 230.207 104.842 240.008 104.842C251.834 104.842 257.099 112.213 257.099 119.26C257.099 129.304 251.591 135.541 239.441 135.541C237.096 135.541 234.385 135.028 232.146 134.42C230.428 133.953 229.347 132.325 229.393 130.545V130.545C229.471 127.519 232.697 125.505 235.679 126.02C236.768 126.208 237.805 126.307 238.712 126.307C244.382 126.307 247.136 123.553 247.136 119.341C247.136 116.587 244.706 113.914 239.603 113.914C230.961 113.914 213.26 122.974 204.04 127.586C201.622 128.795 198.748 127.752 197.596 125.306V125.306Z" fill="#0C0B0B"/>
<path d="M140.292 83.5C143.613 83.5206 146.155 86.4691 145.852 89.7768C145.704 91.4014 145.588 92.9885 145.518 94.393C145.113 103.141 144.546 121.204 144.546 131.248C144.546 139.429 149.406 142.102 155.724 142.102C165.971 142.102 173.314 137.578 178.847 131.489C181.353 128.731 185.808 128.484 188.17 131.365V131.365C189.729 133.266 189.88 135.986 188.303 137.871C182.277 145.074 171.52 153.118 155.562 153.118C142.278 153.118 133.773 147.286 133.773 133.435C133.773 122.581 134.502 101.359 134.502 94.393C134.502 92.9706 134.459 91.5482 134.372 90.1615C134.154 86.6849 136.808 83.4784 140.292 83.5V83.5Z" fill="#0C0B0B"/>
<path d="M71.1266 82C74.0691 82 76.3846 84.7337 76.1838 87.6694C76.1496 88.1694 76.1234 88.6379 76.107 89.047C75.702 95.446 75.459 104.194 75.459 111.727C75.459 120.556 75.945 134.569 75.945 139.267C75.945 149.23 72.381 151.984 67.035 151.984C59.178 151.984 48 145.18 48 136.594C48 128.737 58.125 120.475 69.384 116.506C76.593 113.914 84.774 112.618 90.93 112.618C103.404 112.618 113.286 119.098 113.286 130.276C113.286 139.915 108.264 147.124 95.385 150.283C93.101 150.78 90.8474 151.063 88.6802 151.283C86.343 151.52 84.1513 150.095 83.3829 147.875V147.875C82.24 144.574 84.7003 141.24 88.1813 140.942C89.1585 140.858 90.0826 140.737 90.93 140.563C97.491 139.429 102.756 136.108 102.756 130.276C102.756 124.687 97.896 121.528 90.849 121.528C83.964 121.528 76.836 122.986 70.518 125.497C63.228 128.251 58.044 132.625 58.044 136.108C58.044 138.7 61.851 140.887 63.957 140.887C65.415 140.887 66.468 140.239 66.468 137.404C66.468 133.192 66.063 121.933 66.063 112.132C66.063 102.898 66.144 92.854 66.144 89.128C66.144 88.7046 66.1274 88.1152 66.0985 87.4494C65.9746 84.5895 68.2639 82 71.1266 82V82ZM97.8358 94.5065C99.008 92.4392 101.586 91.6376 103.693 92.7363C107.868 94.9132 112.627 97.5859 116.279 99.8429C118.323 101.106 118.893 103.764 117.66 105.826V105.826C116.214 108.244 112.904 108.854 110.544 107.314C107.271 105.179 103.169 102.777 99.7268 100.9C97.4428 99.655 96.5527 96.7694 97.8358 94.5065V94.5065ZM50.3257 100.88C50.2525 97.9275 52.8141 95.6092 55.7642 95.7495C57.8982 95.851 59.7216 95.851 61.365 95.851C67.9482 95.851 77.1037 94.9111 84.7725 93.3406C87.8264 92.7152 90.8419 94.9359 90.9173 98.0523V98.0523C90.9718 100.307 89.435 102.296 87.2201 102.721C78.5299 104.39 67.8795 105.49 61.689 105.49C58.7829 105.49 56.523 105.466 54.6232 105.392C52.2114 105.298 50.3856 103.293 50.3257 100.88V100.88Z" fill="#0C0B0B"/>
</svg>
